<?xml version="1.0" standalone="no"?>
<!DOCTYPE svg PUBLIC "-//W3C//DTD SVG 20010904//EN"
 "http://www.w3.org/TR/2001/REC-SVG-20010904/DTD/svg10.dtd">
<svg version="1.0" xmlns="http://www.w3.org/2000/svg"
 width="1920.000000pt" height="1920.000000pt" viewBox="0 0 1920.000000 1920.000000"
 preserveAspectRatio="xMidYMid meet">

<g transform="translate(0.000000,1920.000000) scale(0.100000,-0.100000)"
fill="#000000" stroke="none">
<path d="M11535 12616 c-71 -19 -103 -33 -162 -72 -126 -84 -248 -241 -339
-440 l-47 -101 -33 22 c-60 41 -177 93 -259 116 -103 29 -268 31 -365 6 -62
-17 -255 -105 -247 -113 2 -2 39 -13 83 -25 287 -74 624 -203 624 -240 0 -3
-55 -9 -122 -13 -162 -10 -270 -29 -398 -72 -218 -73 -378 -194 -488 -369 -58
-93 -120 -260 -108 -292 3 -8 1 -11 -4 -8 -6 3 -10 -1 -10 -10 0 -12 4 -13 18
-6 9 5 85 46 167 91 414 225 733 351 897 354 84 1 89 -13 23 -59 -33 -22 -54
-43 -51 -51 3 -7 0 -11 -7 -8 -23 9 -161 -139 -225 -241 -17 -28 -43 -82 -59
-120 -23 -61 -27 -84 -27 -185 -1 -124 10 -173 64 -282 31 -62 107 -168 121
-168 5 0 9 21 9 48 0 26 7 88 15 137 65 405 271 698 579 826 l79 33 85 -89
c147 -156 336 -405 436 -575 62 -106 188 -375 229 -490 167 -466 186 -935 58
-1391 -35 -123 -70 -219 -79 -219 -4 1 -67 93 -141 206 -74 113 -141 214 -150
225 -16 19 -18 18 -91 -31 -41 -27 -80 -50 -85 -50 -6 0 -21 46 -34 103 -44
197 -150 467 -221 568 l-22 29 47 21 c26 11 81 28 123 36 154 32 336 -18 529
-144 l23 -15 -16 54 c-34 113 -119 225 -207 270 -95 48 -239 57 -370 22 -28
-7 -53 -11 -56 -8 -15 15 213 213 342 297 84 55 192 107 221 107 9 0 16 4 16
9 0 17 -105 35 -205 35 -111 0 -166 -14 -273 -66 -82 -40 -214 -166 -274 -261
-28 -45 -30 118 -3 242 11 48 37 120 61 168 47 95 49 94 -62 44 -73 -34 -171
-123 -206 -188 -31 -56 -68 -183 -68 -231 0 -32 -2 -34 -27 -29 -244 43 -297
44 -414 7 -63 -19 -132 -66 -122 -83 3 -5 1 -7 -4 -4 -6 4 -17 -1 -26 -11 -15
-17 -7 -19 143 -40 185 -27 339 -57 352 -70 5 -5 -30 -23 -79 -41 -181 -68
-320 -156 -426 -271 -85 -91 -124 -176 -132 -288 l-5 -64 88 79 c181 164 329
273 446 329 63 30 136 45 136 28 0 -4 -16 -28 -35 -55 -92 -129 -129 -241
-123 -379 3 -88 7 -104 41 -171 20 -41 56 -96 80 -123 l44 -50 7 116 c8 132
28 267 52 348 20 70 63 168 86 199 10 13 15 28 11 35 -3 6 -3 8 2 4 4 -4 23 6
43 23 35 31 54 41 104 53 26 6 30 2 66 -71 73 -144 146 -376 182 -575 16 -89
16 -97 1 -103 -9 -3 -113 -69 -233 -146 l-216 -139 -529 295 c-290 162 -533
294 -539 293 -6 -2 -107 -86 -224 -188 -117 -102 -216 -184 -220 -183 -4 1
-225 140 -491 309 -265 168 -488 308 -495 311 -7 3 -320 -183 -695 -412 -376
-229 -690 -420 -700 -423 -16 -6 -13 -20 34 -137 147 -365 360 -689 632 -960
420 -420 933 -676 1515 -756 125 -18 507 -18 630 -1 154 22 353 68 499 117
218 74 516 229 701 366 53 40 61 43 53 22 -4 -10 -33 -64 -65 -120 -32 -57
-58 -105 -58 -108 0 -3 47 27 105 67 405 276 720 628 961 1073 133 247 264
637 294 875 18 142 24 463 11 610 -49 565 -233 1045 -572 1495 -37 49 -155
184 -213 243 -81 83 -80 87 23 98 225 24 549 -114 811 -345 l58 -50 6 32 c8
44 -11 189 -34 255 -62 177 -205 298 -415 353 -58 15 -126 22 -247 26 -93 3
-168 9 -167 12 0 8 79 59 214 141 274 164 590 270 807 270 38 0 67 4 64 9 -11
17 -173 90 -251 113 -69 20 -102 23 -240 22 -145 0 -169 -3 -255 -28 -171 -50
-369 -162 -542 -307 -28 -23 -38 -27 -38 -15 0 19 98 295 147 415 43 107 95
202 135 247 l30 34 -33 -1 c-19 0 -56 -6 -84 -13z m-2968 -3457 c-6 -10 -95
-117 -196 -237 l-185 -220 -481 -206 c-265 -113 -488 -206 -496 -208 -9 -2
-19 31 -36 117 -13 65 -22 124 -19 131 2 6 262 170 578 364 315 195 600 371
633 391 l60 38 77 -76 c67 -67 76 -79 65 -94z m1322 -125 c33 -55 33 -56 14
-77 -11 -12 -76 -88 -144 -168 l-125 -145 -28 -155 c-16 -85 -31 -157 -33
-161 -2 -4 -61 56 -130 133 l-126 141 34 33 c94 91 491 455 497 455 4 0 22
-25 41 -56z m1363 -684 l-7 -165 -37 71 c-42 82 -58 96 -156 143 -40 19 -72
37 -72 40 0 3 62 40 138 83 l137 76 3 -41 c1 -23 -1 -116 -6 -207z m-2238 178
c-34 -56 -297 -474 -299 -476 -6 -7 -735 -233 -735 -228 0 2 147 140 327 307
l327 303 186 52 c211 60 204 58 194 42z"/>
<path d="M8305 12520 c-74 -36 -155 -117 -267 -267 -71 -94 -104 -146 -196
-303 -8 -12 -71 -16 -408 -21 -219 -4 -466 -8 -549 -8 l-150 -1 -78 -90 c-51
-58 -74 -92 -65 -95 7 -2 189 -52 403 -110 512 -139 495 -134 495 -145 0 -12
-486 -739 -509 -761 -9 -9 -94 -35 -196 -58 -99 -24 -188 -45 -197 -47 -15 -5
-84 -102 -76 -109 2 -1 41 -13 88 -25 267 -68 465 -219 531 -402 7 -21 17 -38
22 -38 4 0 29 14 54 31 l45 31 -6 52 c-3 28 -11 129 -17 224 l-12 172 34 48
c18 26 140 190 270 365 l236 317 264 -347 c145 -191 269 -354 276 -363 10 -13
20 -7 72 45 34 33 61 64 61 70 0 6 -76 240 -169 520 -94 280 -167 514 -163
519 3 6 70 103 148 216 218 315 241 356 249 443 3 40 2 92 -2 117 l-8 45 -60
2 c-49 3 -71 -2 -120 -27z"/>
<path d="M6810 10231 c0 -26 47 -41 61 -20 10 17 2 26 -33 34 -24 6 -28 4 -28
-14z"/>
<path d="M6772 10098 c-10 -38 -7 -43 29 -52 24 -5 27 -3 34 31 4 25 2 38 -7
44 -27 18 -47 9 -56 -23z"/>
<path d="M6737 9938 c-6 -42 -2 -48 32 -48 25 0 29 5 34 33 6 41 2 47 -32 47
-25 0 -29 -5 -34 -32z"/>
<path d="M6716 9788 c-13 -49 -8 -58 29 -58 34 0 35 1 35 40 0 37 -2 40 -29
40 -21 0 -30 -6 -35 -22z"/>
<path d="M6700 9610 c0 -37 2 -40 29 -40 25 0 29 4 34 33 6 41 2 47 -34 47
-27 0 -29 -2 -29 -40z"/>
<path d="M6692 9448 c3 -40 5 -43 33 -43 28 0 30 2 30 40 0 38 -2 40 -33 43
l-33 3 3 -43z"/>
<path d="M6694 9317 c-3 -9 -4 -28 -2 -44 3 -24 7 -28 33 -28 28 0 30 2 30 40
0 36 -3 40 -28 43 -17 2 -29 -2 -33 -11z"/>
<path d="M6722 9163 c-20 -4 -23 -10 -20 -41 3 -34 6 -37 33 -37 28 0 30 2 30
39 0 41 -5 46 -43 39z"/>
<path d="M6720 8960 c0 -38 2 -40 29 -40 36 0 43 9 35 49 -6 26 -11 31 -35 31
-27 0 -29 -3 -29 -40z"/>
<path d="M6763 8843 c-15 -3 -23 -12 -23 -24 0 -20 33 -26 58 -11 12 8 7 43
-7 41 -3 -1 -16 -4 -28 -6z"/>
<path d="M6853 8380 c21 -70 152 -324 241 -468 120 -193 383 -511 409 -495 6
3 7 1 4 -4 -8 -13 111 -127 242 -232 544 -433 1203 -644 1900 -609 369 19 710
106 1066 272 52 25 95 47 95 51 0 3 -3 4 -7 2 -52 -31 -289 -119 -418 -157
-428 -124 -888 -152 -1314 -79 -928 158 -1712 751 -2176 1644 -25 50 -44 83
-42 75z"/>
</g>
</svg>
